# xmcd
#
# Track frame offsets:
#	150
#	10362
#	22130
#	31005
#	48515
#	69700
#	81530
#	97532
#	108100
#	120627
#	135222
#	145730
#	158807
#	173017
#	186805
#	197990
#	211057
#	225747
#	241842
#	255887
#	270415
#	284585
#
# Disc length: 3978 seconds
#
# Revision: 0
# Processed by: cddbd v1.5.2PL0 Copyright (c) Steve Scherf et al.
# Submitted via: EasyCDDAExtractor 16.0.6.1
#
DISCID=210f8816
DTITLE=Μοναδικές ερμηνείες-Θεόφρ. Σακελλαρίδης
DYEAR=1991
DGENRE=Κλασική οπερέτα
TTITLE0=Άνευ ερμηνευτού - Εισαγωγή
TTITLE1=Ζαχαράτου Ανθή-Επιτροπάκης Πέτρος - Στο στόμα, στο στόμα
TTITLE2=Ζαχαράτου Ανθή-Πανταζινάκος Αρ. - Τα παλληκάρια, τ΄ανδρεία παιδιά
TTITLE3=Ζαχαράτου Ανθή-Επιτροπάκης Πέτρος - Έλα με όμορφο σκοπό
TTITLE4=Ζαχαράτου Ανθή-χορωδία - Το τσιγγάνικο ταγκό [σόλο βιολί]
TTITLE5=Ζωγράφου Λέλα-Χελιώτης Μιχ. - Η καρδιά μου πονάει για σάς
TTITLE6=Ντε Ροζέ Ελένη-Ζαχαράτου Ανθή - Τον καιρό εκείνο τον παλιό
TTITLE7=Επιτροπάκης Πέτρος-χορωδία - Ψηλά στο μέτωπο
TTITLE8=Βιδάλης Γιώργος-Ξηρέλλης Τίτος - Τρίβε, τρίβε [1922]
TTITLE9=Δελένδας Αντώνιος - Αχ, ξελογιάστρα [1924]
TTITLE10=Δημητριάδης Τέτος - Ο μόρτης [1924]
TTITLE11=Βιδάλης Γιώργος - Ξέρω ένα βασιλιά [1925]
TTITLE12=Δημητριάδης Τέτος - Θέλω να δω τον ... πάπα [1921]
TTITLE13=Βιδάλης Γιώργος-Σαβαρής Γιώργος - Στην τρέλλα του χορού [1925]
TTITLE14=Χρυσομάλλης Άγγελος - Ο σύρτης [1923]
TTITLE15=Σαβαρής Γιώργος-χορωδία - Να γιατί μάς αγαπούνε [1930]
TTITLE16=Μεσολογγίτης Β.-Ανδρονίκου Μ. - Η Μιμίκα (Μάγκικον Fox)[1934]
TTITLE17=Ποζέλι Λουΐζα - Το όνειρο της κόρης [1937]
TTITLE18=Γούναρης Νίκος - Μάρω, Μάρω μια φορά είν' τα νειάτα [1938]
TTITLE19=Παγώνης Άλκης-χορωδία - Πλέκει η Βάσω το προικιό της [1940]
TTITLE20=Κοντόπουλος Κ.-χορωδία - Άπονη Μαρίτσα [1932]
TTITLE21=Ζωγράφου Λέλα-Χελιώτης Μιχ. - Θυμήσου εκείνα τα χρόνια [1915]
EXTD=Greek Opera\n
EXTT0=
EXTT1=
EXTT2=
EXTT3=
EXTT4=
EXTT5=
EXTT6=
EXTT7=
EXTT8=
EXTT9=
EXTT10=
EXTT11=
EXTT12=
EXTT13=
EXTT14=
EXTT15=
EXTT16=
EXTT17=
EXTT18=
EXTT19=
EXTT20=
EXTT21=
PLAYORDER=
